<svg version="1.1" xmlns="http://www.w3.org/2000/svg" xmlns:xlink="http://www.w3.org/1999/xlink" width="1560" height="804"><defs/><g><path fill="none" stroke="#02063B" paint-order="fill stroke markers" d=" M 20 402 L 21 402 L 22 402 L 23 402 L 24 402 L 25 402 L 26 402 L 27 402 L 28 402 L 29 402 L 30 402 L 31 402 L 32 402 L 33 402 L 34 402 L 35 402 L 36 402 L 37 402 L 38 402 L 39 402 L 40 402 L 41 402 L 42 402 L 43 402 L 44 402 L 45 402 L 46 402 L 47 402 L 48 402 L 49 402 L 50 402 L 51 402 L 52 402 L 53 402 L 54 402 L 55 402 L 56 402 L 57 402 L 58 402 L 59 402 L 60 402 L 61 402 L 62 402 L 63 402 L 64 402 L 65 402 L 66 402 L 67 402 L 68 402 L 69 402 L 70 402 L 71 402 L 72 402 L 73 402 L 74 402 L 75 402 L 76 402 L 77 402 L 78 402 L 79 402 L 80 402 L 81 402 L 82 402 L 83 402 L 84 402 L 85 402 L 86 402 L 87 402 L 88 402 L 89 402 L 90 402 L 91 402 L 92 402 L 93 402 L 94 402 L 95 402 L 96 402 L 97 402 L 98 402 L 99 402 L 100 402 L 101 402 L 102 402 L 103 402 L 104 402 L 105 402 L 106 402 L 107 402 L 108 402 L 109 402 L 110 402 L 111 402 L 112 402 L 113 402 L 114 402 L 115 402 L 116 402 L 117 402 L 118 402 L 119 402 L 120 402 L 121 402 L 122 402 L 123 402 L 124 402 L 125 402 L 126 402 L 127 402 L 128 402 L 129 402 L 130 402 L 131 402 L 132 402 L 133 402 L 134 402 L 135 402 L 136 402 L 137 402 L 138 402 L 139 402 L 140 402 L 141 402 L 142 402 L 143 402 L 144 402 L 145 402 L 146 402 L 147 402 L 148 402 L 149 402 L 150 402 L 151 402 L 152 402 L 153 402 L 154 402 L 155 402 L 156 402 L 157 402 L 158 402 L 159 402 L 160 402 L 161 402 L 162 402 L 163 402 L 164 402 L 165 402 L 166 402 L 167 402 L 168 402 L 169 402 L 170 402 L 171 402 L 172 402 L 173 402 L 174 402 L 175 402 L 176 402 L 177 402 L 178 402 L 179 402 L 180 402 L 181 402 L 182 402 L 183 402 L 184 402 L 185 402 L 186 402 L 187 402 L 188 402 L 189 402 L 190 402 L 191 402 L 192 402 L 193 402 L 194 402 L 195 402 L 196 402 L 197 402 L 198 402 L 199 402 L 200 402 L 201 402 L 202 402 L 203 402 L 204 402 L 205 402 L 206 402 L 207 402 L 208 402 L 209 402 L 210 402 L 211 402 L 212 402 L 213 402 L 214 402 L 215 402 L 216 402 L 217 402 L 218 402 L 219 402 L 220 402 L 221 402 L 222 402 L 223 402 L 224 402 L 225 402 L 226 402 L 227 402 L 228 402 L 229 402 L 230 402 L 231 402 L 232 402 L 233 402 L 234 402 L 235 402 L 236 402 L 237 402 L 238 402 L 239 402 L 240 402 L 241 402 L 242 402 L 243 402 L 244 402 L 245 402 L 246 402 L 247 402 L 248 402 L 249 402 L 250 402 L 251 402 L 252 402 L 253 402 L 254 402 L 255 402 L 256 402 L 257 402 L 258 402 L 259 402 L 260 402 L 261 402 L 262 402 L 263 402 L 264 402 L 265 402 L 266 402 L 267 402 L 268 402 L 269 402 L 270 402 L 271 402 L 272 402 L 273 402 L 274 402 L 275 402 L 276 402 L 277 402 L 278 402 L 279 402 L 280 402 L 281 402 L 282 402 L 283 402 L 284 402 L 285 402 L 286 402 L 287 402 L 288 402 L 289 402 L 290 402 L 291 402 L 292 402 L 293 402 L 294 402 L 295 402 L 296 402 L 297 402 L 298 402 L 299 402 L 300 402 L 301 402 L 302 402 L 303 402 L 304 402 L 305 402 L 306 402 L 307 402 L 308 402 L 309 402 L 310 402 L 311 402 L 312 402 L 313 402 L 314 402 L 315 402 L 316 402 L 317 402 L 318 402 L 319 402 L 320 402 L 321 402 L 322 402 L 323 402 L 324 402 L 325 402 L 326 402 L 327 402 L 328 402 L 329 402 L 330 402 L 331 402 L 332 402 L 333 402 L 334 402 L 335 402 L 336 402 L 337 402 L 338 402 L 339 402 L 340 402 L 341 402 L 342 402 L 343 402 L 344 402 L 345 402 L 346 402 L 347 402 L 348 402 L 349 402 L 350 402 L 351 402 L 352 402 L 353 402 L 354 402 L 355 402 L 356 402 L 357 402 L 358 402 L 359 402 L 360 402 L 361 402 L 362 402 L 363 402 L 364 402 L 365 402 L 366 402 L 367 402 L 368 402 L 369 402 L 370 402 L 371 402 L 372 402 L 373 402 L 374 402 L 375 402 L 376 402 L 377 402 L 378 402 L 379 402 L 380 402 L 381 402 L 382 402 L 383 402 L 384 402 L 385 402 L 386 402 L 387 402 L 388 402 L 389 402 L 390 402 L 391 402 L 392 402 L 393 402 L 394 402 L 395 402 L 396 402 L 397 402 L 398 402 L 399 402 L 400 402 L 401 402 L 402 402 L 403 402 L 404 402 L 405 402 L 406 402 L 407 402 L 408 402 L 409 402 L 410 402 L 411 402 L 412 402 L 413 402 L 414 402 L 415 402 L 416 402 L 417 402 L 418 402 L 419 402 L 420 402 L 421 402 L 422 402 L 423 402 L 424 402 L 425 402 L 426 402 L 427 402 L 428 402 L 429 402 L 430 402 L 431 402 L 432 402 L 433 402 L 434 402 L 435 402 L 436 402 L 437 402 L 438 402 L 439 402 L 440 402 L 441 402 L 442 402 L 443 402 L 444 402 L 445 402 L 446 402 L 447 402 L 448 402 L 449 402 L 450 402 L 451 402 L 452 402 L 453 402 L 454 402 L 455 402 L 456 402 L 457 402 L 458 402 L 459 402 L 460 402 L 461 402 L 462 402 L 463 402 L 464 402 L 465 402 L 466 402 L 467 402 L 468 402 L 469 402 L 470 402 L 471 402 L 472 402 L 473 402 L 474 402 L 475 402 L 476 402 L 477 402 L 478 402 L 479 402 L 480 402 L 481 402 L 482 402 L 483 402 L 484 402 L 485 402 L 486 402 L 487 402 L 488 402 L 489 402 L 490 402 L 491 402 L 492 402 L 493 402 L 494 402 L 495 402 L 496 402 L 497 402 L 498 402 L 499 402 L 500 402 L 501 402 L 502 402 L 503 402 L 504 402 L 505 402 L 506 402 L 507 402 L 508 402 L 509 402 L 510 402 L 511 402 L 512 402 L 513 402 L 514 402 L 515 402 L 516 402 L 517 402 L 518 402 L 519 402 L 520 402 L 521 402 L 522 402 L 523 402 L 524 402 L 525 402 L 526 402 L 527 402 L 528 402 L 529 402 L 530 402 L 531 402 L 532 402 L 533 402 L 534 402 L 535 402 L 536 402 L 537 402 L 538 402 L 539 402 L 540 402 L 541 402 L 542 402 L 543 402 L 544 402 L 545 402 L 546 402 L 547 402 L 548 402 L 549 402 L 550 402 L 551 402 L 552 402 L 553 402 L 554 402 L 555 402 L 556 402 L 557 402 L 558 402 L 559 402 L 560 402 L 561 402 L 562 402 L 563 402 L 564 402 L 565 402 L 566 402 L 567 402 L 568 402 L 569 402 L 570 402 L 571 402 L 572 402 L 573 402 L 574 402 L 575 402 L 576 402 L 577 402 L 578 402 L 579 402 L 580 402 L 581 402 L 582 402 L 583 402 L 584 402 L 585 402 L 586 402 L 587 402 L 588 402 L 589 402 L 590 402 L 591 402 L 592 402 L 593 402 L 594 402 L 595 402 L 596 402 L 597 402 L 598 402 L 599 402 L 600 402 L 601 402 L 602 402 L 603 402 L 604 402 L 605 402 L 606 402 L 607 402 L 608 402 L 609 402 L 610 402 L 611 402 L 612 402 L 613 402 L 614 402 L 615 402 L 616 402 L 617 402 L 618 402 L 619 402 L 620 402 L 621 402 L 622 402 L 623 402 L 624 402 L 625 402 L 626 402 L 627 402 L 628 402 L 629 402 L 630 402 L 631 402 L 632 402 L 633 402 L 634 402 L 635 402 L 636 402 L 637 402 L 638 402 L 639 402 L 640 402 L 641 402 L 642 402 L 643 402 L 644 402 L 645 402 L 646 402 L 647 402 L 648 402 L 649 402 L 650 402 L 651 402 L 652 402 L 653 402 L 654 402 L 655 402 L 656 402 L 657 402 L 658 402 L 659 402 L 660 402 L 661 402 L 662 402 L 663 402 L 664 402 L 665 402 L 666 402 L 667 402 L 668 402 L 669 402 L 670 402 L 671 402 L 672 402 L 673 402 L 674 402 L 675 402 L 676 402 L 677 402 L 678 402 L 679 402 L 680 402 L 681 402 L 682 402 L 683 402 L 684 402 L 685 402 L 686 402 L 687 402 L 688 402 L 689 402 L 690 402 L 691 402 L 692 402 L 693 402 L 694 402 L 695 402 L 696 402 L 697 402 L 698 402 L 699 402 L 700 402 L 701 402 L 702 402 L 703 402 L 704 402 L 705 402 L 706 402 L 707 402 L 708 402 L 709 402 L 710 402 L 711 402 L 712 402 L 713 402 L 714 402 L 715 402 L 716 402 L 717 402 L 718 402 L 719 402 L 720 402 L 721 402 L 722 402 L 723 402 L 724 402 L 725 402 L 726 402 L 727 402 L 728 402 L 729 402 L 730 402 L 731 402 L 732 402 L 733 402 L 734 402 L 735 402 L 736 402 L 737 402 L 738 402 L 739 402 L 740 402 L 741 402 L 742 402 L 743 402 L 744 402 L 745 402 L 746 402 L 747 402 L 748 402 L 749 402 L 750 402 L 751 402 L 752 402 L 753 402 L 754 402 L 755 402 L 756 402 L 757 402 L 758 402 L 759 402 L 760 402 L 761 402 L 762 402 L 763 402 L 764 402 L 765 402 L 766 402 L 767 402 L 768 402 L 769 402 L 770 402 L 771 402 L 772 402 L 773 402 L 774 402 L 775 402 L 776 402 L 777 402 L 778 402 L 779 402 L 780 402 L 781 402 L 782 402 L 783 402 L 784 402 L 785 402 L 786 402 L 787 402 L 788 402 L 789 402 L 790 402 L 791 402 L 792 402 L 793 402 L 794 402 L 795 402 L 796 402 L 797 402 L 798 402 L 799 402 L 800 402 L 801 402 L 802 402 L 803 402 L 804 402 L 805 402 L 806 402 L 807 402 L 808 402 L 809 402 L 810 402 L 811 402 L 812 402 L 813 402 L 814 402 L 815 402 L 816 402 L 817 402 L 818 402 L 819 402 L 820 402 L 821 402 L 822 402 L 823 402 L 824 402 L 825 402 L 826 402 L 827 402 L 828 402 L 829 402 L 830 402 L 831 402 L 832 402 L 833 402 L 834 402 L 835 402 L 836 402 L 837 402 L 838 402 L 839 402 L 840 402 L 841 402 L 842 402 L 843 402 L 844 402 L 845 402 L 846 402 L 847 402 L 848 402 L 849 402 L 850 402 L 851 402 L 852 402 L 853 402 L 854 402 L 855 402 L 856 402 L 857 402 L 858 402 L 859 402 L 860 402 L 861 402 L 862 402 L 863 402 L 864 402 L 865 402 L 866 402 L 867 402 L 868 402 L 869 402 L 870 402 L 871 402 L 872 402 L 873 402 L 874 402 L 875 402 L 876 402 L 877 402 L 878 402 L 879 402 L 880 402 L 881 402 L 882 402 L 883 402 L 884 402 L 885 402 L 886 402 L 887 402 L 888 402 L 889 402 L 890 402 L 891 402 L 892 402 L 893 402 L 894 402 L 895 402 L 896 402 L 897 402 L 898 402 L 899 402 L 900 402 L 901 402 L 902 402 L 903 402 L 904 402 L 905 402 L 906 402 L 907 402 L 908 402 L 909 402 L 910 402 L 911 402 L 912 402 L 913 402 L 914 402 L 915 402 L 916 402 L 917 402 L 918 402 L 919 402 L 920 402 L 921 402 L 922 402 L 923 402 L 924 402 L 925 402 L 926 402 L 927 402 L 928 402 L 929 402 L 930 402 L 931 402 L 932 402 L 933 402 L 934 402 L 935 402 L 936 402 L 937 402 L 938 402 L 939 402 L 940 402 L 941 402 L 942 402 L 943 402 L 944 402 L 945 402 L 946 402 L 947 402 L 948 402 L 949 402 L 950 402 L 951 402 L 952 402 L 953 402 L 954 402 L 955 402 L 956 402 L 957 402 L 958 402 L 959 402 L 960 402 L 961 402 L 962 402 L 963 402 L 964 402 L 965 402 L 966 402 L 967 402 L 968 402 L 969 402 L 970 402 L 971 402 L 972 402 L 973 402 L 974 402 L 975 402 L 976 402 L 977 402 L 978 402 L 979 402 L 980 402 L 981 402 L 982 402 L 983 402 L 984 402 L 985 402 L 986 402 L 987 402 L 988 402 L 989 402 L 990 402 L 991 402 L 992 402 L 993 402 L 994 402 L 995 402 L 996 402 L 997 402 L 998 402 L 999 402 L 1000 402 L 1001 402 L 1002 402 L 1003 402 L 1004 402 L 1005 402 L 1006 402 L 1007 402 L 1008 402 L 1009 402 L 1010 402 L 1011 402 L 1012 402 L 1013 402 L 1014 402 L 1015 402 L 1016 402 L 1017 402 L 1018 402 L 1019 402 L 1020 402 L 1021 402 L 1022 402 L 1023 402 L 1024 402 L 1025 402 L 1026 402 L 1027 402 L 1028 402 L 1029 402 L 1030 402 L 1031 402 L 1032 402 L 1033 402 L 1034 402 L 1035 402 L 1036 402 L 1037 402 L 1038 402 L 1039 402 L 1040 402 L 1041 402 L 1042 402 L 1043 402 L 1044 402 L 1045 402 L 1046 402 L 1047 402 L 1048 402 L 1049 402 L 1050 402 L 1051 402 L 1052 402 L 1053 402 L 1054 402 L 1055 402 L 1056 402 L 1057 402 L 1058 402 L 1059 402 L 1060 402 L 1061 402 L 1062 402 L 1063 402 L 1064 402 L 1065 402 L 1066 402 L 1067 402 L 1068 402 L 1069 402 L 1070 402 L 1071 402 L 1072 402 L 1073 402 L 1074 402 L 1075 402 L 1076 402 L 1077 402 L 1078 402 L 1079 402 L 1080 402 L 1081 402 L 1082 402 L 1083 402 L 1084 402 L 1085 402 L 1086 402 L 1087 402 L 1088 402 L 1089 402 L 1090 402 L 1091 402 L 1092 402 L 1093 402 L 1094 402 L 1095 402 L 1096 402 L 1097 402 L 1098 402 L 1099 402 L 1100 402 L 1101 402 L 1102 402 L 1103 402 L 1104 402 L 1105 402 L 1106 402 L 1107 402 L 1108 402 L 1109 402 L 1110 402 L 1111 402 L 1112 402 L 1113 402 L 1114 402 L 1115 402 L 1116 402 L 1117 402 L 1118 402 L 1119 402 L 1120 402 L 1121 402 L 1122 402 L 1123 402 L 1124 402 L 1125 402 L 1126 402 L 1127 402 L 1128 402 L 1129 402 L 1130 402 L 1131 402 L 1132 402 L 1133 402 L 1134 402 L 1135 402 L 1136 402 L 1137 402 L 1138 402 L 1139 402 L 1140 402 L 1141 402 L 1142 402 L 1143 402 L 1144 402 L 1145 402 L 1146 402 L 1147 402 L 1148 402 L 1149 402 L 1150 402 L 1151 402 L 1152 402 L 1153 402 L 1154 402 L 1155 402 L 1156 402 L 1157 402 L 1158 402 L 1159 402 L 1160 402 L 1161 402 L 1162 402 L 1163 402 L 1164 402 L 1165 402 L 1166 402 L 1167 402 L 1168 402 L 1169 402 L 1170 402 L 1171 402 L 1172 402 L 1173 402 L 1174 402 L 1175 402 L 1176 402 L 1177 402 L 1178 402 L 1179 402 L 1180 402 L 1181 402 L 1182 402 L 1183 402 L 1184 402 L 1185 402 L 1186 402 L 1187 402 L 1188 402 L 1189 402 L 1190 402 L 1191 402 L 1192 402 L 1193 402 L 1194 402 L 1195 402 L 1196 402 L 1197 402 L 1198 402 L 1199 402 L 1200 402 L 1201 402 L 1202 402 L 1203 402 L 1204 402 L 1205 402 L 1206 402 L 1207 402 L 1208 402 L 1209 402 L 1210 402 L 1211 402 L 1212 402 L 1213 402 L 1214 402 L 1215 402 L 1216 402 L 1217 402 L 1218 402 L 1219 402 L 1220 402 L 1221 402 L 1222 402 L 1223 402 L 1224 402 L 1225 402 L 1226 402 L 1227 402 L 1228 402 L 1229 402 L 1230 402 L 1231 402 L 1232 402 L 1233 402 L 1234 402 L 1235 402 L 1236 402 L 1237 402 L 1238 402 L 1239 402 L 1240 402 L 1241 402 L 1242 402 L 1243 402 L 1244 402 L 1245 402 L 1246 402 L 1247 402 L 1248 402 L 1249 402 L 1250 402 L 1251 402 L 1252 402 L 1253 402 L 1254 402 L 1255 402 L 1256 402 L 1257 402 L 1258 402 L 1259 402 L 1260 402 L 1261 402 L 1262 402 L 1263 402 L 1264 402 L 1265 402 L 1266 402 L 1267 402 L 1268 402 L 1269 402 L 1270 402 L 1271 402 L 1272 402 L 1273 402 L 1274 402 L 1275 402 L 1276 402 L 1277 402 L 1278 402 L 1279 402 L 1280 402 L 1281 402 L 1282 402 L 1283 402 L 1284 402 L 1285 402 L 1286 402 L 1287 402 L 1288 402 L 1289 402 L 1290 402 L 1291 402 L 1292 402 L 1293 402 L 1294 402 L 1295 402 L 1296 402 L 1297 402 L 1298 402 L 1299 402 L 1300 402 L 1301 402 L 1302 402 L 1303 402 L 1304 402 L 1305 402 L 1306 402 L 1307 402 L 1308 402 L 1309 402 L 1310 402 L 1311 402 L 1312 402 L 1313 402 L 1314 402 L 1315 402 L 1316 402 L 1317 402 L 1318 402 L 1319 402 L 1320 402 L 1321 402 L 1322 402 L 1323 402 L 1324 402 L 1325 402 L 1326 402 L 1327 402 L 1328 402 L 1329 402 L 1330 402 L 1331 402 L 1332 402 L 1333 402 L 1334 402 L 1335 402 L 1336 402 L 1337 402 L 1338 402 L 1339 402 L 1340 402 L 1341 402 L 1342 402 L 1343 402 L 1344 402 L 1345 402 L 1346 402 L 1347 402 L 1348 402 L 1349 402 L 1350 402 L 1351 402 L 1352 402 L 1353 402 L 1354 402 L 1355 402 L 1356 402 L 1357 402 L 1358 402 L 1359 402 L 1360 402 L 1361 402 L 1362 402 L 1363 402 L 1364 402 L 1365 402 L 1366 402 L 1367 402 L 1368 402 L 1369 402 L 1370 402 L 1371 402 L 1372 402 L 1373 402 L 1374 402 L 1375 402 L 1376 402 L 1377 402 L 1378 402 L 1379 402 L 1380 402 L 1381 402 L 1382 402 L 1383 402 L 1384 402 L 1385 402 L 1386 402 L 1387 402 L 1388 402 L 1389 402 L 1390 402 L 1391 402 L 1392 402 L 1393 402 L 1394 402 L 1395 402 L 1396 402 L 1397 402 L 1398 402 L 1399 402 L 1400 402 L 1401 402 L 1402 402 L 1403 402 L 1404 402 L 1405 402 L 1406 402 L 1407 402 L 1408 402 L 1409 402 L 1410 402 L 1411 402 L 1412 402 L 1413 402 L 1414 402 L 1415 402 L 1416 402 L 1417 402 L 1418 402 L 1419 402 L 1420 402 L 1421 402 L 1422 402 L 1423 402 L 1424 402 L 1425 402 L 1426 402 L 1427 402 L 1428 402 L 1429 402 L 1430 402 L 1431 402 L 1432 402 L 1433 402 L 1434 402 L 1435 402 L 1436 402 L 1437 402 L 1438 402 L 1439 402 L 1440 402 L 1441 402 L 1442 402 L 1443 402 L 1444 402 L 1445 402 L 1446 402 L 1447 402 L 1448 402 L 1449 402 L 1450 402 L 1451 402 L 1452 402 L 1453 402 L 1454 402 L 1455 402 L 1456 402 L 1457 402 L 1458 402 L 1459 402 L 1460 402 L 1461 402 L 1462 402 L 1463 402 L 1464 402 L 1465 402 L 1466 402 L 1467 402 L 1468 402 L 1469 402 L 1470 402 L 1471 402 L 1472 402 L 1473 402 L 1474 402 L 1475 402 L 1476 402 L 1477 402 L 1478 402 L 1479 402 L 1480 402 L 1481 402 L 1482 402 L 1483 402 L 1484 402 L 1485 402 L 1486 402 L 1487 402 L 1488 402 L 1489 402 L 1490 402 L 1491 402 L 1492 402 L 1493 402 L 1494 402 L 1495 402 L 1496 402 L 1497 402 L 1498 402 L 1499 402 L 1500 402 L 1501 402 L 1502 402 L 1503 402 L 1504 402 L 1505 402 L 1506 402 L 1507 402 L 1508 402 L 1509 402 L 1510 402 L 1511 402 L 1512 402 L 1513 402 L 1514 402 L 1515 402 L 1516 402 L 1517 402 L 1518 402 L 1519 402 L 1520 402 L 1521 402 L 1522 402 L 1523 402 L 1524 402 L 1525 402 L 1526 402 L 1527 402 L 1528 402 L 1529 402 L 1530 402 L 1531 402 L 1532 402 L 1533 402 L 1534 402 L 1535 402 L 1536 402 L 1537 402 L 1538 402 L 1539 402" stroke-linecap="round" stroke-linejoin="round" stroke-miterlimit="10" stroke-width="16"/></g></svg>